<mxfile host="Electron" modified="2024-01-20T02:57:39.091Z" agent="Mozilla/5.0 (Windows NT 10.0; Win64; x64) AppleWebKit/537.36 (KHTML, like Gecko) draw.io/21.2.8 Chrome/112.0.5615.165 Electron/24.2.0 Safari/537.36" etag="AG3G4FnA3YEd2wAEquOk" version="21.2.8" type="device">
  <diagram name="PÃ¡gina-1" id="7orAtJzK28XmcHbej7EV">
    <mxGraphModel dx="880" dy="524" grid="1" gridSize="10" guides="1" tooltips="1" connect="1" arrows="1" fold="1" page="1" pageScale="1" pageWidth="827" pageHeight="1169" math="0" shadow="0">
      <root>
        <mxCell id="0" />
        <mxCell id="1" parent="0" />
        <mxCell id="OixEaacowObpB584Z9Pd-1" value="Account = aprendizado" style="points=[[0,0],[0.25,0],[0.5,0],[0.75,0],[1,0],[1,0.25],[1,0.5],[1,0.75],[1,1],[0.75,1],[0.5,1],[0.25,1],[0,1],[0,0.75],[0,0.5],[0,0.25]];outlineConnect=0;gradientColor=none;html=1;whiteSpace=wrap;fontSize=12;fontStyle=0;container=1;pointerEvents=0;collapsible=0;recursiveResize=0;shape=mxgraph.aws4.group;grIcon=mxgraph.aws4.group_aws_cloud_alt;strokeColor=#232F3E;fillColor=none;verticalAlign=top;align=left;spacingLeft=30;fontColor=#232F3E;dashed=0;" parent="1" vertex="1">
          <mxGeometry x="70" y="60" width="690" height="500" as="geometry" />
        </mxCell>
        <mxCell id="FnN0o6N7oUxZOLdrA7ma-1" value="Region = us-east-1" style="points=[[0,0],[0.25,0],[0.5,0],[0.75,0],[1,0],[1,0.25],[1,0.5],[1,0.75],[1,1],[0.75,1],[0.5,1],[0.25,1],[0,1],[0,0.75],[0,0.5],[0,0.25]];outlineConnect=0;gradientColor=none;html=1;whiteSpace=wrap;fontSize=12;fontStyle=0;container=1;pointerEvents=0;collapsible=0;recursiveResize=0;shape=mxgraph.aws4.group;grIcon=mxgraph.aws4.group_region;strokeColor=#147EBA;fillColor=none;verticalAlign=top;align=left;spacingLeft=30;fontColor=#147EBA;dashed=1;" vertex="1" parent="OixEaacowObpB584Z9Pd-1">
          <mxGeometry x="20" y="40" width="640" height="440" as="geometry" />
        </mxCell>
        <mxCell id="FnN0o6N7oUxZOLdrA7ma-2" value="VPC = vpc-estudo-efs (10.0.0.0/16)" style="points=[[0,0],[0.25,0],[0.5,0],[0.75,0],[1,0],[1,0.25],[1,0.5],[1,0.75],[1,1],[0.75,1],[0.5,1],[0.25,1],[0,1],[0,0.75],[0,0.5],[0,0.25]];outlineConnect=0;gradientColor=none;html=1;whiteSpace=wrap;fontSize=12;fontStyle=0;container=1;pointerEvents=0;collapsible=0;recursiveResize=0;shape=mxgraph.aws4.group;grIcon=mxgraph.aws4.group_vpc;strokeColor=#248814;fillColor=none;verticalAlign=top;align=left;spacingLeft=30;fontColor=#AAB7B8;dashed=0;" vertex="1" parent="FnN0o6N7oUxZOLdrA7ma-1">
          <mxGeometry x="20" y="40" width="590" height="380" as="geometry" />
        </mxCell>
        <mxCell id="FnN0o6N7oUxZOLdrA7ma-3" value="subnet-estudo-efs-1b&lt;br&gt;(10.0.2.0/24)" style="points=[[0,0],[0.25,0],[0.5,0],[0.75,0],[1,0],[1,0.25],[1,0.5],[1,0.75],[1,1],[0.75,1],[0.5,1],[0.25,1],[0,1],[0,0.75],[0,0.5],[0,0.25]];outlineConnect=0;gradientColor=none;html=1;whiteSpace=wrap;fontSize=12;fontStyle=0;container=1;pointerEvents=0;collapsible=0;recursiveResize=0;shape=mxgraph.aws4.group;grIcon=mxgraph.aws4.group_security_group;grStroke=0;strokeColor=#147EBA;fillColor=#E6F2F8;verticalAlign=top;align=left;spacingLeft=30;fontColor=#147EBA;dashed=0;" vertex="1" parent="FnN0o6N7oUxZOLdrA7ma-2">
          <mxGeometry x="210" y="50" width="170" height="210" as="geometry" />
        </mxCell>
        <mxCell id="FnN0o6N7oUxZOLdrA7ma-7" value="Mount Target" style="fillColor=#f5f5f5;strokeColor=#666666;dashed=0;verticalAlign=top;fontStyle=0;fontColor=#333333;whiteSpace=wrap;html=1;" vertex="1" parent="FnN0o6N7oUxZOLdrA7ma-3">
          <mxGeometry x="20" y="50" width="130" height="130" as="geometry" />
        </mxCell>
        <mxCell id="FnN0o6N7oUxZOLdrA7ma-10" value="eni-estudo-efs-1b&lt;br&gt;(10.0.2.32)" style="sketch=0;outlineConnect=0;fontColor=#232F3E;gradientColor=none;fillColor=#4D27AA;strokeColor=none;dashed=0;verticalLabelPosition=bottom;verticalAlign=top;align=center;html=1;fontSize=12;fontStyle=0;aspect=fixed;pointerEvents=1;shape=mxgraph.aws4.elastic_network_interface;" vertex="1" parent="FnN0o6N7oUxZOLdrA7ma-3">
          <mxGeometry x="65" y="95" width="40" height="40" as="geometry" />
        </mxCell>
        <mxCell id="FnN0o6N7oUxZOLdrA7ma-5" value="subnet-estudo-efs-1c&lt;br&gt;(10.0.3.0/24)" style="points=[[0,0],[0.25,0],[0.5,0],[0.75,0],[1,0],[1,0.25],[1,0.5],[1,0.75],[1,1],[0.75,1],[0.5,1],[0.25,1],[0,1],[0,0.75],[0,0.5],[0,0.25]];outlineConnect=0;gradientColor=none;html=1;whiteSpace=wrap;fontSize=12;fontStyle=0;container=1;pointerEvents=0;collapsible=0;recursiveResize=0;shape=mxgraph.aws4.group;grIcon=mxgraph.aws4.group_security_group;grStroke=0;strokeColor=#147EBA;fillColor=#E6F2F8;verticalAlign=top;align=left;spacingLeft=30;fontColor=#147EBA;dashed=0;" vertex="1" parent="FnN0o6N7oUxZOLdrA7ma-2">
          <mxGeometry x="390" y="50" width="170" height="210" as="geometry" />
        </mxCell>
        <mxCell id="FnN0o6N7oUxZOLdrA7ma-8" value="Mount Target" style="fillColor=#f5f5f5;strokeColor=#666666;dashed=0;verticalAlign=top;fontStyle=0;fontColor=#333333;whiteSpace=wrap;html=1;" vertex="1" parent="FnN0o6N7oUxZOLdrA7ma-5">
          <mxGeometry x="20" y="50" width="130" height="130" as="geometry" />
        </mxCell>
        <mxCell id="FnN0o6N7oUxZOLdrA7ma-11" value="eni-estudo-efs-1c&lt;br&gt;(10.0.3.32)" style="sketch=0;outlineConnect=0;fontColor=#232F3E;gradientColor=none;fillColor=#4D27AA;strokeColor=none;dashed=0;verticalLabelPosition=bottom;verticalAlign=top;align=center;html=1;fontSize=12;fontStyle=0;aspect=fixed;pointerEvents=1;shape=mxgraph.aws4.elastic_network_interface;" vertex="1" parent="FnN0o6N7oUxZOLdrA7ma-5">
          <mxGeometry x="65" y="95" width="40" height="40" as="geometry" />
        </mxCell>
        <mxCell id="FnN0o6N7oUxZOLdrA7ma-13" style="edgeStyle=orthogonalEdgeStyle;rounded=0;orthogonalLoop=1;jettySize=auto;html=1;entryX=0.5;entryY=1;entryDx=0;entryDy=0;endArrow=none;endFill=0;" edge="1" parent="FnN0o6N7oUxZOLdrA7ma-2" source="FnN0o6N7oUxZOLdrA7ma-12" target="FnN0o6N7oUxZOLdrA7ma-7">
          <mxGeometry relative="1" as="geometry" />
        </mxCell>
        <mxCell id="FnN0o6N7oUxZOLdrA7ma-14" style="edgeStyle=orthogonalEdgeStyle;rounded=0;orthogonalLoop=1;jettySize=auto;html=1;entryX=0.5;entryY=1;entryDx=0;entryDy=0;endArrow=none;endFill=0;" edge="1" parent="FnN0o6N7oUxZOLdrA7ma-2" source="FnN0o6N7oUxZOLdrA7ma-12" target="FnN0o6N7oUxZOLdrA7ma-8">
          <mxGeometry relative="1" as="geometry" />
        </mxCell>
        <mxCell id="FnN0o6N7oUxZOLdrA7ma-12" value="efs-estudo" style="sketch=0;points=[[0,0,0],[0.25,0,0],[0.5,0,0],[0.75,0,0],[1,0,0],[0,1,0],[0.25,1,0],[0.5,1,0],[0.75,1,0],[1,1,0],[0,0.25,0],[0,0.5,0],[0,0.75,0],[1,0.25,0],[1,0.5,0],[1,0.75,0]];outlineConnect=0;fontColor=#232F3E;gradientColor=#60A337;gradientDirection=north;fillColor=#277116;strokeColor=#ffffff;dashed=0;verticalLabelPosition=bottom;verticalAlign=top;align=center;html=1;fontSize=12;fontStyle=0;aspect=fixed;shape=mxgraph.aws4.resourceIcon;resIcon=mxgraph.aws4.elastic_file_system;" vertex="1" parent="FnN0o6N7oUxZOLdrA7ma-2">
          <mxGeometry x="265" y="280" width="60" height="60" as="geometry" />
        </mxCell>
        <mxCell id="FnN0o6N7oUxZOLdrA7ma-4" value="subnet-estudo-efs-1a&lt;br&gt;(10.0.1.0/24)" style="points=[[0,0],[0.25,0],[0.5,0],[0.75,0],[1,0],[1,0.25],[1,0.5],[1,0.75],[1,1],[0.75,1],[0.5,1],[0.25,1],[0,1],[0,0.75],[0,0.5],[0,0.25]];outlineConnect=0;gradientColor=none;html=1;whiteSpace=wrap;fontSize=12;fontStyle=0;container=1;pointerEvents=0;collapsible=0;recursiveResize=0;shape=mxgraph.aws4.group;grIcon=mxgraph.aws4.group_security_group;grStroke=0;strokeColor=#147EBA;fillColor=#E6F2F8;verticalAlign=top;align=left;spacingLeft=30;fontColor=#147EBA;dashed=0;" vertex="1" parent="1">
          <mxGeometry x="140" y="190" width="170" height="210" as="geometry" />
        </mxCell>
        <mxCell id="FnN0o6N7oUxZOLdrA7ma-6" value="Mount Target" style="fillColor=#f5f5f5;strokeColor=#666666;dashed=0;verticalAlign=top;fontStyle=0;fontColor=#333333;whiteSpace=wrap;html=1;" vertex="1" parent="FnN0o6N7oUxZOLdrA7ma-4">
          <mxGeometry x="20" y="50" width="130" height="130" as="geometry" />
        </mxCell>
        <mxCell id="FnN0o6N7oUxZOLdrA7ma-9" value="eni-estudo-efs-1a&lt;br&gt;(10.0.1.32)" style="sketch=0;outlineConnect=0;fontColor=#232F3E;gradientColor=none;fillColor=#4D27AA;strokeColor=none;dashed=0;verticalLabelPosition=bottom;verticalAlign=top;align=center;html=1;fontSize=12;fontStyle=0;aspect=fixed;pointerEvents=1;shape=mxgraph.aws4.elastic_network_interface;" vertex="1" parent="FnN0o6N7oUxZOLdrA7ma-4">
          <mxGeometry x="65" y="95" width="40" height="40" as="geometry" />
        </mxCell>
        <mxCell id="FnN0o6N7oUxZOLdrA7ma-15" style="edgeStyle=orthogonalEdgeStyle;rounded=0;orthogonalLoop=1;jettySize=auto;html=1;entryX=0.5;entryY=1;entryDx=0;entryDy=0;endArrow=none;endFill=0;" edge="1" parent="1" source="FnN0o6N7oUxZOLdrA7ma-12" target="FnN0o6N7oUxZOLdrA7ma-6">
          <mxGeometry relative="1" as="geometry" />
        </mxCell>
      </root>
    </mxGraphModel>
  </diagram>
</mxfile>
